<?xml version="1.0" encoding="UTF-8"?><svg id="Layer_2" xmlns="http://www.w3.org/2000/svg" viewBox="0 0 538.67 326.29"><defs><style>.cls-1{fill:#662d91;}.cls-2{fill:#ffe7ff;}.cls-2,.cls-3{stroke:#ff47ff;stroke-width:7px;}.cls-2,.cls-3,.cls-4,.cls-5{stroke-miterlimit:10;}.cls-3{fill:#ff87ff;}.cls-4{fill:#ccc;stroke-width:1.5px;}.cls-4,.cls-5{stroke:gray;}.cls-5{fill:none;stroke-linecap:round;stroke-width:.75px;}</style></defs><g id="Layer_1-2"><rect class="cls-3" x="24.68" y="3.5" width="510.49" height="300" rx="15" ry="15"/><rect class="cls-2" x="3.5" y="22.79" width="510.49" height="300" rx="15" ry="15"/><circle class="cls-4" cx="484.49" cy="293.89" r="7.95"/><line class="cls-5" x1="486.91" y1="291.94" x2="482.08" y2="296.77"/><line class="cls-5" x1="482.06" y1="291.92" x2="486.93" y2="296.79"/><circle class="cls-4" cx="484.49" cy="51.7" r="7.95"/><line class="cls-5" x1="486.91" y1="49.75" x2="482.08" y2="54.58"/><line class="cls-5" x1="482.06" y1="49.73" x2="486.93" y2="54.6"/><circle class="cls-4" cx="33" cy="293.89" r="7.95"/><line class="cls-5" x1="35.41" y1="291.94" x2="30.59" y2="296.77"/><line class="cls-5" x1="30.56" y1="291.92" x2="35.43" y2="296.79"/><circle class="cls-4" cx="33" cy="51.7" r="7.95"/><line class="cls-5" x1="35.41" y1="49.75" x2="30.59" y2="54.58"/><line class="cls-5" x1="30.56" y1="49.73" x2="35.43" y2="54.6"/><path d="m77.01,131.3v24.17h14.55v-24.17h-14.55Zm13.5,23.15h-10.74v-20.43h10.74v20.43Zm-13.5-23.15v24.17h14.55v-24.17h-14.55Zm13.5,23.15h-10.74v-20.43h10.74v20.43Zm6.9-22.47v-1.7h-3.16v-3.17h-1.7v-1.7h-21.39v35.94h1.7v1.7h21.39v-4.86h4.86v-26.21h-1.7Zm-1.02,23.49h-4.83v4.86h-19.38v-33.9h19.38v4.87h4.83v24.17Zm-19.38-24.17v24.17h14.55v-24.17h-14.55Zm13.5,23.15h-10.74v-20.43h10.74v20.43Zm-13.5-23.15v24.17h14.55v-24.17h-14.55Zm13.5,23.15h-10.74v-20.43h10.74v20.43Zm-13.5-23.15v24.17h14.55v-24.17h-14.55Zm13.5,23.15h-10.74v-20.43h10.74v20.43Z"/><rect class="cls-1" x="91.56" y="131.3" width="4.83" height="24.17"/><polygon class="cls-1" points="77.01 131.3 77.01 155.47 91.56 155.47 91.56 160.33 72.18 160.33 72.18 126.43 91.56 126.43 91.56 131.3 77.01 131.3"/><path d="m110.5,131.3v24.17h14.55v-24.17h-14.55Zm13.5,23.15h-10.74v-20.43h10.74v20.43Zm-13.5-23.15v24.17h14.55v-24.17h-14.55Zm13.5,23.15h-10.74v-20.43h10.74v20.43Zm-13.5-23.15v24.17h14.55v-24.17h-14.55Zm13.5,23.15h-10.74v-20.43h10.74v20.43Zm-13.5-23.15v24.17h14.55v-24.17h-14.55Zm13.5,23.15h-10.74v-20.43h10.74v20.43Zm6.9-22.47v-1.7h-3.16v-3.17h-1.7v-1.7h-16.52v4.87h-4.87v26.21h1.7v1.7h3.17v3.16h1.69v1.7h16.53v-4.86h4.86v-26.21h-1.7Zm-1.02,23.49h-4.83v4.86h-14.55v-4.86h-4.83v-24.17h4.83v-4.87h14.55v4.87h4.83v24.17Zm-19.38-24.17v24.17h14.55v-24.17h-14.55Zm13.5,23.15h-10.74v-20.43h10.74v20.43Zm-13.5-23.15v24.17h14.55v-24.17h-14.55Zm13.5,23.15h-10.74v-20.43h10.74v20.43Zm-13.5-23.15v24.17h14.55v-24.17h-14.55Zm13.5,23.15h-10.74v-20.43h10.74v20.43Zm-13.5-23.15v24.17h14.55v-24.17h-14.55Zm13.5,23.15h-10.74v-20.43h10.74v20.43Zm-13.5-23.15v24.17h14.55v-24.17h-14.55Zm13.5,23.15h-10.74v-20.43h10.74v20.43Z"/><rect class="cls-1" x="110.5" y="155.47" width="14.55" height="4.86"/><rect class="cls-1" x="125.05" y="131.3" width="4.83" height="24.17"/><rect class="cls-1" x="110.5" y="126.43" width="14.55" height="4.87"/><rect class="cls-1" x="105.67" y="131.3" width="4.83" height="24.17"/><path d="m164.39,127.11v-1.7h-6.83v29.11h-10.88v-27.41h-1.7v-1.7h-6.84v31.08h1.7v1.7h3.17v3.16h1.69v1.7h16.53v-4.86h4.86v-31.08h-1.7Zm-1.02,28.43h-4.83v4.79h-14.55v-4.79h-4.83v-29.11h4.83v29.11h14.55v-29.11h4.83v29.11Z"/><rect class="cls-1" x="158.54" y="126.43" width="4.83" height="29.11"/><rect class="cls-1" x="143.99" y="155.54" width="14.55" height="4.79"/><rect class="cls-1" x="139.16" y="126.43" width="4.83" height="29.11"/><path d="m177.41,145.85v9.62h14.55v-9.62h-14.55Zm13.5,8.6h-10.74v-5.88h10.74v5.88Zm-13.5-23.15v9.62h14.55v-9.62h-14.55Zm13.5,8.6h-10.74v-5.88h10.74v5.88Zm-13.5,5.95v9.62h14.55v-9.62h-14.55Zm13.5,8.6h-10.74v-5.88h10.74v5.88Zm-13.5-23.15v9.62h14.55v-9.62h-14.55Zm13.5,8.6h-10.74v-5.88h10.74v5.88Zm-13.5-8.6v9.62h14.55v-9.62h-14.55Zm13.5,8.6h-10.74v-5.88h10.74v5.88Zm-13.5,5.95v9.62h14.55v-9.62h-14.55Zm13.5,8.6h-10.74v-5.88h10.74v5.88Zm-13.5,1.02h14.55v-9.62h-14.55v9.62Zm2.76-6.9h10.74v5.88h-10.74v-5.88Zm-2.76-17.27v9.62h14.55v-9.62h-14.55Zm13.5,8.6h-10.74v-5.88h10.74v5.88Zm8.6,3.74v-11.66h-1.7v-1.7h-3.16v-3.17h-1.7v-1.7h-21.39v35.94h1.7v1.7h21.39v-4.86h4.86v-11.66h-1.7v-1.7h-3.16v-1.19h4.86Zm-2.72,2.21v9.62h-4.83v4.86h-19.38v-33.9h19.38v4.87h4.83v9.62h-4.83v4.93h4.83Zm-19.38,9.62h14.55v-9.62h-14.55v9.62Zm2.76-6.9h10.74v5.88h-10.74v-5.88Zm-2.76-7.65h14.55v-9.62h-14.55v9.62Zm2.76-6.9h10.74v5.88h-10.74v-5.88Zm-2.76-2.72v9.62h14.55v-9.62h-14.55Zm13.5,8.6h-10.74v-5.88h10.74v5.88Zm-13.5,5.95v9.62h14.55v-9.62h-14.55Zm13.5,8.6h-10.74v-5.88h10.74v5.88Zm-13.5-8.6v9.62h14.55v-9.62h-14.55Zm13.5,8.6h-10.74v-5.88h10.74v5.88Zm-13.5-23.15v9.62h14.55v-9.62h-14.55Zm13.5,8.6h-10.74v-5.88h10.74v5.88Z"/><rect class="cls-1" x="191.96" y="145.85" width="4.83" height="9.62"/><rect class="cls-1" x="191.96" y="131.3" width="4.83" height="9.62"/><polygon class="cls-1" points="177.41 131.3 177.41 140.92 191.96 140.92 191.96 145.85 177.41 145.85 177.41 155.47 191.96 155.47 191.96 160.33 172.58 160.33 172.58 126.43 191.96 126.43 191.96 131.3 177.41 131.3"/><path d="m231.03,156.22v-1.7h-17.71v-27.41h-1.7v-1.7h-6.84v35.94h1.7v1.7h26.25v-6.83h-1.7Zm-1.02,4.11h-24.21v-33.9h4.83v29.11h19.38v4.79Z"/><polygon class="cls-1" points="230.01 155.54 230.01 160.33 205.8 160.33 205.8 126.43 210.63 126.43 210.63 155.54 230.01 155.54"/><path d="m263.4,133.95v-6.84h-1.7v-1.7h-26.25v35.94h1.7v1.7h26.25v-6.83h-1.7v-1.7h-17.72v-6.02h9.73v-6.8h-1.7v-1.7h-8.03v-6.05h19.42Zm-12.41,7.07v4.79h-9.69v9.73h19.38v4.79h-24.21v-33.9h24.21v4.8h-19.38v9.79h9.69Z"/><polygon class="cls-1" points="241.3 131.23 241.3 141.02 250.99 141.02 250.99 145.81 241.3 145.81 241.3 155.54 260.68 155.54 260.68 160.33 236.47 160.33 236.47 126.43 260.68 126.43 260.68 131.23 241.3 131.23"/><path d="m314.5,138.81v-6.83h-1.7v-1.7h-3.03v-3.17h-1.7v-1.7h-16.66v4.87h-4.86v26.21h1.7v1.7h3.16v3.16h1.7v1.7h16.53v-4.86h4.86v-6.8h-1.7v-1.7h-6.9v4.83h-10.81v-20.57h10.88v3.16h1.7v1.7h6.83Zm-7.55-2.72v-4.79h-14.55v24.24h14.48v-4.8h4.9v4.8h-4.9v4.79h-14.48v-4.79h-4.83v-24.24h4.83v-4.8h14.55v4.8h4.83v4.79h-4.83Z"/><rect class="cls-1" x="306.88" y="150.74" width="4.9" height="4.8"/><rect class="cls-1" x="292.4" y="155.54" width="14.48" height="4.79"/><rect class="cls-1" x="306.95" y="131.3" width="4.83" height="4.79"/><rect class="cls-1" x="292.4" y="126.5" width="14.55" height="4.8"/><rect class="cls-1" x="287.57" y="131.3" width="4.83" height="24.24"/><path d="m344.93,156.22v-1.7h-17.71v-27.41h-1.7v-1.7h-6.84v35.94h1.7v1.7h26.25v-6.83h-1.7Zm-1.02,4.11h-24.21v-33.9h4.83v29.11h19.38v4.79Z"/><polygon class="cls-1" points="343.91 155.54 343.91 160.33 319.7 160.33 319.7 126.43 324.53 126.43 324.53 155.54 343.91 155.54"/><path d="m367.61,133.95v-6.84h-1.7v-1.7h-16.56v6.84h1.7v1.7h3.16v20.57h-4.86v6.83h1.7v1.7h16.56v-6.83h-1.7v-1.7h-3.17v-20.57h4.87Zm-2.69,21.59v4.79h-14.55v-4.79h4.86v-24.31h-4.86v-4.8h14.55v4.8h-4.86v24.31h4.86Z"/><polygon class="cls-1" points="360.06 131.23 360.06 155.54 364.92 155.54 364.92 160.33 350.37 160.33 350.37 155.54 355.23 155.54 355.23 131.23 350.37 131.23 350.37 126.43 364.92 126.43 364.92 131.23 360.06 131.23"/><path d="m400.66,138.81v-6.83h-1.7v-1.7h-3.03v-3.17h-1.7v-1.7h-16.66v4.87h-4.86v26.21h1.7v1.7h3.16v3.16h1.7v1.7h16.52v-4.86h4.87v-6.8h-1.7v-1.7h-6.91v4.83h-10.81v-20.57h10.88v3.16h1.7v1.7h6.84Zm-7.55-2.72v-4.79h-14.55v24.24h14.48v-4.8h4.9v4.8h-4.9v4.79h-14.48v-4.79h-4.83v-24.24h4.83v-4.8h14.55v4.8h4.83v4.79h-4.83Z"/><rect class="cls-1" x="393.04" y="150.74" width="4.9" height="4.8"/><rect class="cls-1" x="378.56" y="155.54" width="14.48" height="4.79"/><rect class="cls-1" x="393.11" y="131.3" width="4.83" height="4.79"/><rect class="cls-1" x="378.56" y="126.5" width="14.55" height="4.8"/><rect class="cls-1" x="373.73" y="131.3" width="4.83" height="24.24"/><path d="m427.96,143.64v-4.83h4.86v-11.7h-1.7v-1.7h-6.9v9.73h-4.76v4.83h-6.05v-12.86h-1.7v-1.7h-6.84v35.94h1.7v1.7h6.84v-14.55h6.05v3.16h1.7v1.7h3.13v7.99h1.7v1.7h6.83v-11.66h-1.7v-1.7h-3.03v-3.16h-1.7v-1.7h-3.26v-1.19h4.83Zm-2.62,2.11v4.79h4.76v9.66h-4.76v-9.66h-4.9v-4.79h-9.72v14.45h-4.83v-33.7h4.83v14.45h9.72v-4.79h4.76v-9.66h4.9v9.66h-4.9v4.79h-4.76v4.8h4.9Z"/><rect class="cls-1" x="425.34" y="150.54" width="4.76" height="9.66"/><rect class="cls-1" x="420.44" y="145.75" width="4.9" height="4.79"/><rect class="cls-1" x="425.2" y="126.5" width="4.9" height="9.66"/><rect class="cls-1" x="420.44" y="136.16" width="4.76" height="4.79"/><polygon class="cls-1" points="420.44 140.95 420.44 145.75 410.72 145.75 410.72 160.2 405.89 160.2 405.89 126.5 410.72 126.5 410.72 140.95 420.44 140.95"/><path d="m129.57,197.11v-1.7h-26.24v6.84h1.7v1.7h8.02v27.4h1.7v1.7h6.83v-29.1h9.7v-6.84h-1.71Zm-1.02,4.12h-9.65v29.1h-4.83v-29.1h-9.72v-4.8h24.2v4.8Z"/><polygon class="cls-1" points="128.55 196.43 128.55 201.23 118.9 201.23 118.9 230.33 114.07 230.33 114.07 201.23 104.35 201.23 104.35 196.43 128.55 196.43"/><path d="m141.2,201.3v24.17h14.56v-24.17h-14.56Zm13.5,23.15h-10.74v-20.43h10.74v20.43Zm-13.5-23.15v24.17h14.56v-24.17h-14.56Zm13.5,23.15h-10.74v-20.43h10.74v20.43Zm-13.5-23.15v24.17h14.56v-24.17h-14.56Zm13.5,23.15h-10.74v-20.43h10.74v20.43Zm-13.5-23.15v24.17h14.56v-24.17h-14.56Zm13.5,23.15h-10.74v-20.43h10.74v20.43Zm6.9-22.47v-1.7h-3.16v-3.17h-1.7v-1.7h-16.52v4.87h-4.86v26.21h1.7v1.7h3.16v3.16h1.7v1.7h16.52v-4.86h4.86v-26.21h-1.7Zm-1.02,23.49h-4.82v4.86h-14.56v-4.86h-4.83v-24.17h4.83v-4.87h14.56v4.87h4.82v24.17Zm-19.38-24.17v24.17h14.56v-24.17h-14.56Zm13.5,23.15h-10.74v-20.43h10.74v20.43Zm-13.5-23.15v24.17h14.56v-24.17h-14.56Zm13.5,23.15h-10.74v-20.43h10.74v20.43Zm-13.5-23.15v24.17h14.56v-24.17h-14.56Zm13.5,23.15h-10.74v-20.43h10.74v20.43Zm-13.5-23.15v24.17h14.56v-24.17h-14.56Zm13.5,23.15h-10.74v-20.43h10.74v20.43Zm-13.5-23.15v24.17h14.56v-24.17h-14.56Zm13.5,23.15h-10.74v-20.43h10.74v20.43Z"/><rect class="cls-1" x="141.2" y="225.47" width="14.56" height="4.86"/><rect class="cls-1" x="136.37" y="201.3" width="4.83" height="24.17"/><rect class="cls-1" x="141.2" y="196.43" width="14.56" height="4.87"/><rect class="cls-1" x="155.76" y="201.3" width="4.82" height="24.17"/><path d="m215.87,208.81v-6.83h-1.7v-1.7h-3.03v-3.17h-1.7v-1.7h-16.66v4.87h-4.86v26.21h1.7v1.7h3.16v3.16h1.7v1.7h21.39v-21.38h-1.7v-1.7h-16.53v6.83h1.7v1.7h7.92v6.02h-10.81v-20.57h10.88v3.16h1.7v1.7h6.84Zm-7.55-2.79v-4.79h-14.55v24.31h14.48v-9.76h-9.59v-4.79h14.49v19.34h-19.38v-4.79h-4.83v-24.31h4.83v-4.8h14.55v4.8h4.83v4.79h-4.83Z"/><rect class="cls-1" x="188.94" y="201.23" width="4.83" height="24.31"/><rect class="cls-1" x="193.77" y="196.43" width="14.55" height="4.8"/><rect class="cls-1" x="208.32" y="201.23" width="4.83" height="4.79"/><polygon class="cls-1" points="213.15 210.99 213.15 230.33 193.77 230.33 193.77 225.54 208.25 225.54 208.25 215.78 198.66 215.78 198.66 210.99 213.15 210.99"/><path d="m227.15,201.3v24.17h14.56v-24.17h-14.56Zm13.5,23.15h-10.74v-20.43h10.74v20.43Zm-13.5-23.15v24.17h14.56v-24.17h-14.56Zm13.5,23.15h-10.74v-20.43h10.74v20.43Zm-13.5-23.15v24.17h14.56v-24.17h-14.56Zm13.5,23.15h-10.74v-20.43h10.74v20.43Zm-13.5-23.15v24.17h14.56v-24.17h-14.56Zm13.5,23.15h-10.74v-20.43h10.74v20.43Zm6.9-22.47v-1.7h-3.16v-3.17h-1.7v-1.7h-16.52v4.87h-4.86v26.21h1.7v1.7h3.16v3.16h1.7v1.7h16.52v-4.86h4.86v-26.21h-1.7Zm-1.02,23.49h-4.82v4.86h-14.56v-4.86h-4.82v-24.17h4.82v-4.87h14.56v4.87h4.82v24.17Zm-19.38-24.17v24.17h14.56v-24.17h-14.56Zm13.5,23.15h-10.74v-20.43h10.74v20.43Zm-13.5-23.15v24.17h14.56v-24.17h-14.56Zm13.5,23.15h-10.74v-20.43h10.74v20.43Zm-13.5-23.15v24.17h14.56v-24.17h-14.56Zm13.5,23.15h-10.74v-20.43h10.74v20.43Zm-13.5-23.15v24.17h14.56v-24.17h-14.56Zm13.5,23.15h-10.74v-20.43h10.74v20.43Zm-13.5-23.15v24.17h14.56v-24.17h-14.56Zm13.5,23.15h-10.74v-20.43h10.74v20.43Z"/><rect class="cls-1" x="227.15" y="225.47" width="14.56" height="4.86"/><rect class="cls-1" x="222.33" y="201.3" width="4.82" height="24.17"/><rect class="cls-1" x="227.15" y="196.43" width="14.56" height="4.87"/><rect class="cls-1" x="241.71" y="201.3" width="4.82" height="24.17"/><path d="m279.72,215.85v9.62h14.55v-9.62h-14.55Zm13.5,8.6h-10.75v-5.88h10.75v5.88Zm-13.5-23.15v9.62h14.55v-9.62h-14.55Zm13.5,8.6h-10.75v-5.88h10.75v5.88Zm-13.5,5.95v9.62h14.55v-9.62h-14.55Zm13.5,8.6h-10.75v-5.88h10.75v5.88Zm-13.5-23.15v9.62h14.55v-9.62h-14.55Zm13.5,8.6h-10.75v-5.88h10.75v5.88Zm-13.5-8.6v9.62h14.55v-9.62h-14.55Zm13.5,8.6h-10.75v-5.88h10.75v5.88Zm-13.5,5.95v9.62h14.55v-9.62h-14.55Zm13.5,8.6h-10.75v-5.88h10.75v5.88Zm-13.5,1.02h14.55v-9.62h-14.55v9.62Zm2.75-6.9h10.75v5.88h-10.75v-5.88Zm-2.75-17.27v9.62h14.55v-9.62h-14.55Zm13.5,8.6h-10.75v-5.88h10.75v5.88Zm8.6,3.74v-11.66h-1.7v-1.7h-3.16v-3.17h-1.7v-1.7h-21.39v35.94h1.7v1.7h21.39v-4.86h4.86v-11.66h-1.7v-1.7h-3.16v-1.19h4.86Zm-2.72,2.21v9.62h-4.83v4.86h-19.38v-33.9h19.38v4.87h4.83v9.62h-4.83v4.93h4.83Zm-19.38,9.62h14.55v-9.62h-14.55v9.62Zm2.75-6.9h10.75v5.88h-10.75v-5.88Zm-2.75-7.65h14.55v-9.62h-14.55v9.62Zm2.75-6.9h10.75v5.88h-10.75v-5.88Zm-2.75-2.72v9.62h14.55v-9.62h-14.55Zm13.5,8.6h-10.75v-5.88h10.75v5.88Zm-13.5,5.95v9.62h14.55v-9.62h-14.55Zm13.5,8.6h-10.75v-5.88h10.75v5.88Zm-13.5-8.6v9.62h14.55v-9.62h-14.55Zm13.5,8.6h-10.75v-5.88h10.75v5.88Zm-13.5-23.15v9.62h14.55v-9.62h-14.55Zm13.5,8.6h-10.75v-5.88h10.75v5.88Z"/><polygon class="cls-1" points="279.72 201.3 279.72 210.92 294.27 210.92 294.27 215.85 279.72 215.85 279.72 225.47 294.27 225.47 294.27 230.33 274.89 230.33 274.89 196.43 294.27 196.43 294.27 201.3 279.72 201.3"/><rect class="cls-1" x="294.27" y="201.3" width="4.83" height="9.62"/><rect class="cls-1" x="294.27" y="215.85" width="4.83" height="9.62"/><path d="m312.97,201.3v9.62h14.55v-9.62h-14.55Zm13.46,8.6h-10.67v-5.88h10.67v5.88Zm-13.46-8.6v9.62h14.55v-9.62h-14.55Zm13.46,8.6h-10.67v-5.88h10.67v5.88Zm6.94-7.92v-1.7h-3.03v-3.17h-1.7v-1.7h-16.79v4.87h-4.73v31.07h1.7v1.7h6.94v-14.55h10.67v12.85h1.7v1.7h6.94v-31.07h-1.7Zm-1.02,28.35h-4.83v-14.55h-14.55v14.55h-4.83v-29.03h4.73v-4.87h14.75v4.87h4.73v29.03Zm-19.38-19.41h14.55v-9.62h-14.55v9.62Zm2.79-6.9h10.67v5.88h-10.67v-5.88Z"/><path class="cls-1" d="m327.62,201.3v-4.87h-14.75v4.87h-4.73v29.03h4.83v-14.55h14.55v14.55h4.83v-29.03h-4.73Zm-.1,9.62h-14.55v-9.62h14.55v9.62Z"/><path d="m368.49,208.81v-6.83h-1.7v-1.7h-3.02v-3.17h-1.7v-1.7h-16.66v4.87h-4.87v26.21h1.7v1.7h3.17v3.16h1.7v1.7h16.52v-4.86h4.86v-6.8h-1.7v-1.7h-6.9v4.83h-10.81v-20.57h10.88v3.16h1.7v1.7h6.83Zm-7.55-2.72v-4.79h-14.55v24.24h14.49v-4.8h4.89v4.8h-4.89v4.79h-14.49v-4.79h-4.83v-24.24h4.83v-4.8h14.55v4.8h4.83v4.79h-4.83Z"/><rect class="cls-1" x="346.39" y="225.54" width="14.49" height="4.79"/><rect class="cls-1" x="341.56" y="201.3" width="4.83" height="24.24"/><rect class="cls-1" x="346.39" y="196.5" width="14.55" height="4.8"/><rect class="cls-1" x="360.94" y="201.3" width="4.83" height="4.79"/><rect class="cls-1" x="360.88" y="220.74" width="4.89" height="4.8"/><path d="m395.79,213.64v-4.83h4.87v-11.7h-1.7v-1.7h-6.91v9.73h-4.76v4.83h-6.05v-12.86h-1.7v-1.7h-6.83v35.94h1.7v1.7h6.83v-14.55h6.05v3.16h1.7v1.7h3.13v7.99h1.7v1.7h6.84v-11.66h-1.7v-1.7h-3.03v-3.16h-1.7v-1.7h-3.26v-1.19h4.82Zm-2.61,2.11v4.79h4.76v9.66h-4.76v-9.66h-4.9v-4.79h-9.72v14.45h-4.83v-33.7h4.83v14.45h9.72v-4.79h4.76v-9.66h4.9v9.66h-4.9v4.79h-4.76v4.8h4.9Z"/><polygon class="cls-1" points="388.28 210.95 388.28 215.75 378.56 215.75 378.56 230.2 373.73 230.2 373.73 196.5 378.56 196.5 378.56 210.95 388.28 210.95"/><rect class="cls-1" x="393.04" y="196.5" width="4.9" height="9.66"/><rect class="cls-1" x="388.28" y="206.16" width="4.76" height="4.79"/><rect class="cls-1" x="388.28" y="215.75" width="4.9" height="4.79"/><rect class="cls-1" x="393.18" y="220.54" width="4.76" height="9.66"/></g></svg>