<?xml version="1.0" encoding="UTF-8"?><svg id="Layer_2" xmlns="http://www.w3.org/2000/svg" viewBox="0 0 538.67 326.29"><defs><style>.cls-1{fill:#662d91;}.cls-2{fill:#ffe7ff;}.cls-2,.cls-3{stroke:#ff47ff;stroke-width:7px;}.cls-2,.cls-3,.cls-4,.cls-5{stroke-miterlimit:10;}.cls-3{fill:#ff87ff;}.cls-4{fill:#ccc;stroke-width:1.5px;}.cls-4,.cls-5{stroke:gray;}.cls-5{fill:none;stroke-linecap:round;stroke-width:.75px;}</style></defs><g id="Layer_1-2"><rect class="cls-3" x="24.68" y="3.5" width="510.49" height="300" rx="15" ry="15"/><rect class="cls-2" x="3.5" y="22.79" width="510.49" height="300" rx="15" ry="15"/><path d="m77.41,132.37v-6.83h-1.7v-1.7h-3.03v-3.17h-1.7v-1.7h-16.66v4.87h-4.86v26.21h1.7v1.7h3.16v3.16h1.7v1.7h16.53v-4.86h4.86v-6.8h-1.7v-1.7h-6.9v4.83h-10.82v-20.57h10.88v3.16h1.7v1.7h6.84Zm-7.55-2.72v-4.79h-14.55v24.24h14.48v-4.8h4.9v4.8h-4.9v4.79h-14.48v-4.79h-4.83v-24.24h4.83v-4.8h14.55v4.8h4.83v4.79h-4.83Z"/><rect class="cls-1" x="69.79" y="144.3" width="4.9" height="4.8"/><rect class="cls-1" x="55.31" y="149.1" width="14.48" height="4.79"/><rect class="cls-1" x="69.86" y="124.86" width="4.83" height="4.79"/><rect class="cls-1" x="55.31" y="120.06" width="14.55" height="4.8"/><rect class="cls-1" x="50.48" y="124.86" width="4.83" height="24.24"/><path d="m107.84,149.78v-1.7h-17.72v-27.41h-1.7v-1.7h-6.83v35.94h1.7v1.7h26.25v-6.83h-1.7Zm-1.02,4.11h-24.21v-33.9h4.83v29.11h19.38v4.79Z"/><polygon class="cls-1" points="106.82 149.1 106.82 153.89 82.61 153.89 82.61 119.99 87.44 119.99 87.44 149.1 106.82 149.1"/><path d="m130.52,127.51v-6.84h-1.71v-1.7h-16.55v6.84h1.7v1.7h3.16v20.57h-4.86v6.83h1.7v1.7h16.56v-6.83h-1.71v-1.7h-3.16v-20.57h4.87Zm-2.69,21.59v4.79h-14.55v-4.79h4.86v-24.31h-4.86v-4.8h14.55v4.8h-4.86v24.31h4.86Z"/><polygon class="cls-1" points="122.97 124.79 122.97 149.1 127.83 149.1 127.83 153.89 113.28 153.89 113.28 149.1 118.14 149.1 118.14 124.79 113.28 124.79 113.28 119.99 127.83 119.99 127.83 124.79 122.97 124.79"/><path d="m163.56,132.37v-6.83h-1.7v-1.7h-3.02v-3.17h-1.7v-1.7h-16.66v4.87h-4.87v26.21h1.7v1.7h3.17v3.16h1.7v1.7h16.52v-4.86h4.86v-6.8h-1.7v-1.7h-6.9v4.83h-10.81v-20.57h10.88v3.16h1.7v1.7h6.83Zm-7.54-2.72v-4.79h-14.56v24.24h14.49v-4.8h4.89v4.8h-4.89v4.79h-14.49v-4.79h-4.83v-24.24h4.83v-4.8h14.56v4.8h4.82v4.79h-4.82Z"/><rect class="cls-1" x="155.95" y="144.3" width="4.89" height="4.8"/><rect class="cls-1" x="141.46" y="149.1" width="14.49" height="4.79"/><rect class="cls-1" x="156.02" y="124.86" width="4.82" height="4.79"/><rect class="cls-1" x="141.46" y="120.06" width="14.56" height="4.8"/><rect class="cls-1" x="136.63" y="124.86" width="4.83" height="24.24"/><path d="m190.86,137.2v-4.83h4.87v-11.7h-1.7v-1.7h-6.91v9.73h-4.76v4.83h-6.05v-12.86h-1.7v-1.7h-6.83v35.94h1.7v1.7h6.83v-14.55h6.05v3.16h1.7v1.7h3.13v7.99h1.7v1.7h6.84v-11.66h-1.7v-1.7h-3.03v-3.16h-1.7v-1.7h-3.26v-1.19h4.82Zm-2.61,2.11v4.79h4.76v9.66h-4.76v-9.66h-4.9v-4.79h-9.72v14.45h-4.83v-33.7h4.83v14.45h9.72v-4.79h4.76v-9.66h4.9v9.66h-4.9v4.79h-4.76v4.8h4.9Z"/><rect class="cls-1" x="188.25" y="144.1" width="4.76" height="9.66"/><rect class="cls-1" x="183.35" y="139.31" width="4.9" height="4.79"/><rect class="cls-1" x="188.11" y="120.06" width="4.9" height="9.66"/><rect class="cls-1" x="183.35" y="129.72" width="4.76" height="4.79"/><polygon class="cls-1" points="183.35 134.51 183.35 139.31 173.63 139.31 173.63 153.76 168.8 153.76 168.8 120.06 173.63 120.06 173.63 134.51 183.35 134.51"/><path d="m226.12,124.86v9.62h14.56v-9.62h-14.56Zm13.47,8.6h-10.68v-5.88h10.68v5.88Zm-13.47-8.6v9.62h14.56v-9.62h-14.56Zm13.47,8.6h-10.68v-5.88h10.68v5.88Zm6.93-7.92v-1.7h-3.02v-3.17h-1.7v-1.7h-16.8v4.87h-4.73v31.07h1.71v1.7h6.93v-14.55h10.68v12.85h1.7v1.7h6.93v-31.07h-1.7Zm-1.02,28.35h-4.82v-14.55h-14.56v14.55h-4.83v-29.03h4.73v-4.87h14.76v4.87h4.72v29.03Zm-19.38-19.41h14.56v-9.62h-14.56v9.62Zm2.79-6.9h10.68v5.88h-10.68v-5.88Zm-2.79-2.72v9.62h14.56v-9.62h-14.56Zm13.47,8.6h-10.68v-5.88h10.68v5.88Zm-13.47-8.6v9.62h14.56v-9.62h-14.56Zm13.47,8.6h-10.68v-5.88h10.68v5.88Z"/><path class="cls-1" d="m240.78,124.86v-4.87h-14.76v4.87h-4.73v29.03h4.83v-14.55h14.56v14.55h4.82v-29.03h-4.72Zm-.1,9.62h-14.56v-9.62h14.56v9.62Z"/><path d="m279.94,120.67v-1.7h-6.83v14.56h-1.16v-3.13h-1.7v-1.7h-3.16v-3.16h-1.7v-1.7h-3.16v-3.17h-1.7v-1.7h-6.83v35.94h1.7v1.7h6.83v-24.24h1.19v3.13h1.7v1.7h3.16v3.16h1.7v1.7h3.13v12.85h1.7v1.7h6.83v-35.94h-1.7Zm-1.02,33.22h-4.82v-14.65h-4.83v-4.8h-4.83v-4.79h-4.9v24.24h-4.82v-33.9h4.82v4.87h4.9v4.79h4.83v4.79h4.83v-14.45h4.82v33.9Z"/><polygon class="cls-1" points="278.92 119.99 278.92 153.89 274.1 153.89 274.1 139.24 269.27 139.24 269.27 134.44 274.1 134.44 274.1 119.99 278.92 119.99"/><rect class="cls-1" x="264.44" y="129.65" width="4.83" height="4.79"/><polygon class="cls-1" points="264.44 124.86 264.44 129.65 259.54 129.65 259.54 153.89 254.72 153.89 254.72 119.99 259.54 119.99 259.54 124.86 264.44 124.86"/><path d="m293.03,124.86v24.17h14.56v-24.17h-14.56Zm13.5,23.15h-10.74v-20.43h10.74v20.43Zm-13.5-23.15v24.17h14.56v-24.17h-14.56Zm13.5,23.15h-10.74v-20.43h10.74v20.43Zm-13.5-23.15v24.17h14.56v-24.17h-14.56Zm13.5,23.15h-10.74v-20.43h10.74v20.43Zm-13.5-23.15v24.17h14.56v-24.17h-14.56Zm13.5,23.15h-10.74v-20.43h10.74v20.43Zm6.9-22.47v-1.7h-3.16v-3.17h-1.7v-1.7h-21.38v35.94h1.7v1.7h21.38v-4.86h4.86v-26.21h-1.7Zm-1.02,23.49h-4.82v4.86h-19.38v-33.9h19.38v4.87h4.82v24.17Zm-19.38-24.17v24.17h14.56v-24.17h-14.56Zm13.5,23.15h-10.74v-20.43h10.74v20.43Zm-13.5-23.15v24.17h14.56v-24.17h-14.56Zm13.5,23.15h-10.74v-20.43h10.74v20.43Zm-13.5-23.15v24.17h14.56v-24.17h-14.56Zm13.5,23.15h-10.74v-20.43h10.74v20.43Zm-13.5-23.15v24.17h14.56v-24.17h-14.56Zm13.5,23.15h-10.74v-20.43h10.74v20.43Zm-13.5-23.15v24.17h14.56v-24.17h-14.56Zm13.5,23.15h-10.74v-20.43h10.74v20.43Z"/><rect class="cls-1" x="307.59" y="124.86" width="4.82" height="24.17"/><polygon class="cls-1" points="293.03 124.86 293.03 149.03 307.59 149.03 307.59 153.89 288.21 153.89 288.21 119.99 307.59 119.99 307.59 124.86 293.03 124.86"/><path d="m345.6,124.86v24.17h14.55v-24.17h-14.55Zm13.5,23.15h-10.75v-20.43h10.75v20.43Zm-13.5-23.15v24.17h14.55v-24.17h-14.55Zm13.5,23.15h-10.75v-20.43h10.75v20.43Zm-13.5-23.15v24.17h14.55v-24.17h-14.55Zm13.5,23.15h-10.75v-20.43h10.75v20.43Zm-13.5-23.15v24.17h14.55v-24.17h-14.55Zm13.5,23.15h-10.75v-20.43h10.75v20.43Zm6.9-22.47v-1.7h-3.16v-3.17h-1.7v-1.7h-21.39v35.94h1.7v1.7h21.39v-4.86h4.86v-26.21h-1.7Zm-1.02,23.49h-4.83v4.86h-19.38v-33.9h19.38v4.87h4.83v24.17Zm-19.38-24.17v24.17h14.55v-24.17h-14.55Zm13.5,23.15h-10.75v-20.43h10.75v20.43Zm-13.5-23.15v24.17h14.55v-24.17h-14.55Zm13.5,23.15h-10.75v-20.43h10.75v20.43Zm-13.5-23.15v24.17h14.55v-24.17h-14.55Zm13.5,23.15h-10.75v-20.43h10.75v20.43Zm-13.5-23.15v24.17h14.55v-24.17h-14.55Zm13.5,23.15h-10.75v-20.43h10.75v20.43Zm-13.5-23.15v24.17h14.55v-24.17h-14.55Zm13.5,23.15h-10.75v-20.43h10.75v20.43Z"/><rect class="cls-1" x="360.15" y="124.86" width="4.83" height="24.17"/><polygon class="cls-1" points="345.6 124.86 345.6 149.03 360.15 149.03 360.15 153.89 340.77 153.89 340.77 119.99 360.15 119.99 360.15 124.86 345.6 124.86"/><path d="m379.09,124.86v9.62h14.55v-9.62h-14.55Zm13.5,8.6h-10.75v-5.88h10.75v5.88Zm-13.5-8.6v9.62h14.55v-9.62h-14.55Zm13.5,8.6h-10.75v-5.88h10.75v5.88Zm-13.5-8.6v9.62h14.55v-9.62h-14.55Zm13.5,8.6h-10.75v-5.88h10.75v5.88Zm-13.5-8.6v9.62h14.55v-9.62h-14.55Zm13.5,8.6h-10.75v-5.88h10.75v5.88Zm-13.5-8.6v9.62h14.55v-9.62h-14.55Zm13.5,8.6h-10.75v-5.88h10.75v5.88Zm-13.5-8.6v9.62h14.55v-9.62h-14.55Zm13.5,8.6h-10.75v-5.88h10.75v5.88Zm8.6,3.74v-11.66h-1.7v-1.7h-3.16v-3.17h-1.7v-1.7h-21.39v35.94h1.7v1.7h6.9v-14.55h10.75v12.85h1.76v1.7h6.84v-16.52h-1.7v-1.7h-3.16v-1.19h4.86Zm-2.72,2.14v14.55h-4.83v-14.55h-14.55v14.55h-4.83v-33.9h19.38v4.87h4.83v9.62h-4.83v4.86h4.83Zm-19.38-4.86h14.55v-9.62h-14.55v9.62Zm2.75-6.9h10.75v5.88h-10.75v-5.88Zm-2.75-2.72v9.62h14.55v-9.62h-14.55Zm13.5,8.6h-10.75v-5.88h10.75v5.88Zm-13.5-8.6v9.62h14.55v-9.62h-14.55Zm13.5,8.6h-10.75v-5.88h10.75v5.88Zm-13.5-8.6v9.62h14.55v-9.62h-14.55Zm13.5,8.6h-10.75v-5.88h10.75v5.88Zm-13.5-8.6v9.62h14.55v-9.62h-14.55Zm13.5,8.6h-10.75v-5.88h10.75v5.88Zm-13.5-8.6v9.62h14.55v-9.62h-14.55Zm13.5,8.6h-10.75v-5.88h10.75v5.88Zm-13.5-8.6v9.62h14.55v-9.62h-14.55Zm13.5,8.6h-10.75v-5.88h10.75v5.88Z"/><rect class="cls-1" x="393.64" y="139.34" width="4.83" height="14.55"/><rect class="cls-1" x="393.64" y="124.86" width="4.83" height="9.62"/><polygon class="cls-1" points="379.09 124.86 379.09 134.48 393.64 134.48 393.64 139.34 379.09 139.34 379.09 153.89 374.26 153.89 374.26 119.99 393.64 119.99 393.64 124.86 379.09 124.86"/><path d="m412.51,124.86v9.62h14.55v-9.62h-14.55Zm13.46,8.6h-10.67v-5.88h10.67v5.88Zm-13.46-8.6v9.62h14.55v-9.62h-14.55Zm13.46,8.6h-10.67v-5.88h10.67v5.88Zm6.94-7.92v-1.7h-3.03v-3.17h-1.7v-1.7h-16.79v4.87h-4.73v31.07h1.7v1.7h6.94v-14.55h10.67v12.85h1.7v1.7h6.94v-31.07h-1.7Zm-1.02,28.35h-4.83v-14.55h-14.55v14.55h-4.83v-29.03h4.73v-4.87h14.75v4.87h4.73v29.03Zm-19.38-19.41h14.55v-9.62h-14.55v9.62Zm2.79-6.9h10.67v5.88h-10.67v-5.88Zm-2.79-2.72v9.62h14.55v-9.62h-14.55Zm13.46,8.6h-10.67v-5.88h10.67v5.88Zm-13.46-8.6v9.62h14.55v-9.62h-14.55Zm13.46,8.6h-10.67v-5.88h10.67v5.88Z"/><path class="cls-1" d="m427.16,124.86v-4.87h-14.75v4.87h-4.73v29.03h4.83v-14.55h14.55v14.55h4.83v-29.03h-4.73Zm-.1,9.62h-14.55v-9.62h14.55v9.62Z"/><path d="m468.03,132.37v-6.83h-1.7v-1.7h-3.02v-3.17h-1.71v-1.7h-16.65v4.87h-4.87v26.21h1.7v1.7h3.17v3.16h1.69v1.7h21.39v-21.38h-1.7v-1.7h-16.52v6.83h1.7v1.7h7.92v6.02h-10.81v-20.57h10.88v3.16h1.7v1.7h6.83Zm-7.55-2.79v-4.79h-14.55v24.31h14.49v-9.76h-9.59v-4.79h14.48v19.34h-19.38v-4.79h-4.83v-24.31h4.83v-4.8h14.55v4.8h4.83v4.79h-4.83Z"/><rect class="cls-1" x="460.48" y="124.79" width="4.83" height="4.79"/><polygon class="cls-1" points="465.31 134.55 465.31 153.89 445.93 153.89 445.93 149.1 460.42 149.1 460.42 139.34 450.83 139.34 450.83 134.55 465.31 134.55"/><rect class="cls-1" x="445.93" y="119.99" width="14.55" height="4.8"/><rect class="cls-1" x="441.1" y="124.79" width="4.83" height="24.31"/><path d="m119.45,190.67v-1.7h-26.25v6.84h1.7v1.7h8.02v27.4h1.7v1.7h6.84v-29.1h9.69v-6.84h-1.7Zm-1.02,4.12h-9.66v29.1h-4.83v-29.1h-9.72v-4.8h24.21v4.8Z"/><polygon class="cls-1" points="118.43 189.99 118.43 194.79 108.77 194.79 108.77 223.89 103.94 223.89 103.94 194.79 94.22 194.79 94.22 189.99 118.43 189.99"/><path d="m131.08,194.86v24.17h14.55v-24.17h-14.55Zm13.49,23.15h-10.74v-20.43h10.74v20.43Zm-13.49-23.15v24.17h14.55v-24.17h-14.55Zm13.49,23.15h-10.74v-20.43h10.74v20.43Zm-13.49-23.15v24.17h14.55v-24.17h-14.55Zm13.49,23.15h-10.74v-20.43h10.74v20.43Zm-13.49-23.15v24.17h14.55v-24.17h-14.55Zm13.49,23.15h-10.74v-20.43h10.74v20.43Zm-13.49-23.15v24.17h14.55v-24.17h-14.55Zm13.49,23.15h-10.74v-20.43h10.74v20.43Zm-13.49-23.15v24.17h14.55v-24.17h-14.55Zm13.49,23.15h-10.74v-20.43h10.74v20.43Zm-13.49-23.15v24.17h14.55v-24.17h-14.55Zm13.49,23.15h-10.74v-20.43h10.74v20.43Zm-13.49-23.15v24.17h14.55v-24.17h-14.55Zm13.49,23.15h-10.74v-20.43h10.74v20.43Zm6.91-22.47v-1.7h-3.17v-3.17h-1.7v-1.7h-16.52v4.87h-4.86v26.21h1.7v1.7h3.16v3.16h1.7v1.7h16.52v-4.86h4.87v-26.21h-1.7Zm-1.02,23.49h-4.83v4.86h-14.55v-4.86h-4.83v-24.17h4.83v-4.87h14.55v4.87h4.83v24.17Zm-19.38-24.17v24.17h14.55v-24.17h-14.55Zm13.49,23.15h-10.74v-20.43h10.74v20.43Zm-13.49-23.15v24.17h14.55v-24.17h-14.55Zm13.49,23.15h-10.74v-20.43h10.74v20.43Zm-13.49-23.15v24.17h14.55v-24.17h-14.55Zm13.49,23.15h-10.74v-20.43h10.74v20.43Zm-13.49-23.15v24.17h14.55v-24.17h-14.55Zm13.49,23.15h-10.74v-20.43h10.74v20.43Zm-13.49-23.15v24.17h14.55v-24.17h-14.55Zm13.49,23.15h-10.74v-20.43h10.74v20.43Zm-13.49-23.15v24.17h14.55v-24.17h-14.55Zm13.49,23.15h-10.74v-20.43h10.74v20.43Zm-13.49-23.15v24.17h14.55v-24.17h-14.55Zm13.49,23.15h-10.74v-20.43h10.74v20.43Zm-13.49-23.15v24.17h14.55v-24.17h-14.55Zm13.49,23.15h-10.74v-20.43h10.74v20.43Zm-13.49-23.15v24.17h14.55v-24.17h-14.55Zm13.49,23.15h-10.74v-20.43h10.74v20.43Z"/><rect class="cls-1" x="131.08" y="219.03" width="14.55" height="4.86"/><rect class="cls-1" x="126.25" y="194.86" width="4.83" height="24.17"/><rect class="cls-1" x="131.08" y="189.99" width="14.55" height="4.87"/><rect class="cls-1" x="145.63" y="194.86" width="4.83" height="24.17"/><path d="m196.05,197.51v-6.84h-1.7v-1.7h-16.56v6.84h1.7v1.7h3.16v20.57h-4.86v6.83h1.7v1.7h16.56v-6.83h-1.7v-1.7h-3.16v-20.57h4.86Zm-2.69,21.59v4.79h-14.55v-4.79h4.86v-24.31h-4.86v-4.8h14.55v4.8h-4.86v24.31h4.86Z"/><polygon class="cls-1" points="188.5 194.79 188.5 219.1 193.36 219.1 193.36 223.89 178.81 223.89 178.81 219.1 183.67 219.1 183.67 194.79 178.81 194.79 178.81 189.99 193.36 189.99 193.36 194.79 188.5 194.79"/><path d="m227.4,190.67v-1.7h-6.84v14.56h-1.15v-3.13h-1.7v-1.7h-3.16v-3.16h-1.7v-1.7h-3.17v-3.17h-1.7v-1.7h-6.83v35.94h1.7v1.7h6.83v-24.24h1.19v3.13h1.7v1.7h3.17v3.16h1.7v1.7h3.12v12.85h1.7v1.7h6.84v-35.94h-1.7Zm-1.02,33.22h-4.83v-14.65h-4.83v-4.8h-4.83v-4.79h-4.89v24.24h-4.83v-33.9h4.83v4.87h4.89v4.79h4.83v4.79h4.83v-14.45h4.83v33.9Z"/><polygon class="cls-1" points="211.89 194.86 211.89 199.65 207 199.65 207 223.89 202.17 223.89 202.17 189.99 207 189.99 207 194.86 211.89 194.86"/><rect class="cls-1" x="211.89" y="199.65" width="4.83" height="4.79"/><polygon class="cls-1" points="226.38 189.99 226.38 223.89 221.55 223.89 221.55 209.24 216.72 209.24 216.72 204.44 221.55 204.44 221.55 189.99 226.38 189.99"/><path d="m260.89,190.67v-1.7h-26.25v6.84h1.7v1.7h8.02v27.4h1.7v1.7h6.84v-29.1h9.69v-6.84h-1.7Zm-1.02,4.12h-9.66v29.1h-4.83v-29.1h-9.72v-4.8h24.21v4.8Z"/><polygon class="cls-1" points="259.87 189.99 259.87 194.79 250.21 194.79 250.21 223.89 245.38 223.89 245.38 194.79 235.66 194.79 235.66 189.99 259.87 189.99"/><path d="m294.62,197.51v-6.84h-1.7v-1.7h-26.25v35.94h1.7v1.7h26.25v-6.83h-1.7v-1.7h-17.72v-6.02h9.73v-6.8h-1.7v-1.7h-8.03v-6.05h19.42Zm-12.41,7.07v4.79h-9.69v9.73h19.38v4.79h-24.21v-33.9h24.21v4.8h-19.38v9.79h9.69Z"/><polygon class="cls-1" points="272.52 194.79 272.52 204.58 282.21 204.58 282.21 209.37 272.52 209.37 272.52 219.1 291.9 219.1 291.9 223.89 267.69 223.89 267.69 189.99 291.9 189.99 291.9 194.79 272.52 194.79"/><path d="m304.54,194.86v9.62h14.56v-9.62h-14.56Zm13.5,8.6h-10.74v-5.88h10.74v5.88Zm-13.5-8.6v9.62h14.56v-9.62h-14.56Zm13.5,8.6h-10.74v-5.88h10.74v5.88Zm-13.5-8.6v9.62h14.56v-9.62h-14.56Zm13.5,8.6h-10.74v-5.88h10.74v5.88Zm-13.5-8.6v9.62h14.56v-9.62h-14.56Zm13.5,8.6h-10.74v-5.88h10.74v5.88Zm-13.5-8.6v9.62h14.56v-9.62h-14.56Zm13.5,8.6h-10.74v-5.88h10.74v5.88Zm-13.5-8.6v9.62h14.56v-9.62h-14.56Zm13.5,8.6h-10.74v-5.88h10.74v5.88Zm8.6,3.74v-11.66h-1.7v-1.7h-3.16v-3.17h-1.7v-1.7h-21.38v35.94h1.7v1.7h6.9v-14.55h10.74v12.85h1.77v1.7h6.83v-16.52h-1.7v-1.7h-3.16v-1.19h4.86Zm-2.72,2.14v14.55h-4.82v-14.55h-14.56v14.55h-4.82v-33.9h19.38v4.87h4.82v9.62h-4.82v4.86h4.82Zm-19.38-4.86h14.56v-9.62h-14.56v9.62Zm2.76-6.9h10.74v5.88h-10.74v-5.88Zm-2.76-2.72v9.62h14.56v-9.62h-14.56Zm13.5,8.6h-10.74v-5.88h10.74v5.88Zm-13.5-8.6v9.62h14.56v-9.62h-14.56Zm13.5,8.6h-10.74v-5.88h10.74v5.88Zm-13.5-8.6v9.62h14.56v-9.62h-14.56Zm13.5,8.6h-10.74v-5.88h10.74v5.88Zm-13.5-8.6v9.62h14.56v-9.62h-14.56Zm13.5,8.6h-10.74v-5.88h10.74v5.88Zm-13.5-8.6v9.62h14.56v-9.62h-14.56Zm13.5,8.6h-10.74v-5.88h10.74v5.88Zm-13.5-8.6v9.62h14.56v-9.62h-14.56Zm13.5,8.6h-10.74v-5.88h10.74v5.88Z"/><polygon class="cls-1" points="304.54 194.86 304.54 204.48 319.1 204.48 319.1 209.34 304.54 209.34 304.54 223.89 299.72 223.89 299.72 189.99 319.1 189.99 319.1 194.86 304.54 194.86"/><rect class="cls-1" x="319.1" y="194.86" width="4.82" height="9.62"/><rect class="cls-1" x="319.1" y="209.34" width="4.82" height="14.55"/><path d="m337.97,194.86v9.62h14.55v-9.62h-14.55Zm13.46,8.6h-10.68v-5.88h10.68v5.88Zm-13.46-8.6v9.62h14.55v-9.62h-14.55Zm13.46,8.6h-10.68v-5.88h10.68v5.88Zm6.94-7.92v-1.7h-3.03v-3.17h-1.7v-1.7h-16.8v4.87h-4.72v31.07h1.7v1.7h6.93v-14.55h10.68v12.85h1.7v1.7h6.94v-31.07h-1.7Zm-1.02,28.35h-4.83v-14.55h-14.55v14.55h-4.83v-29.03h4.72v-4.87h14.76v4.87h4.73v29.03Zm-19.38-19.41h14.55v-9.62h-14.55v9.62Zm2.78-6.9h10.68v5.88h-10.68v-5.88Zm-2.78-2.72v9.62h14.55v-9.62h-14.55Zm13.46,8.6h-10.68v-5.88h10.68v5.88Zm-13.46-8.6v9.62h14.55v-9.62h-14.55Zm13.46,8.6h-10.68v-5.88h10.68v5.88Z"/><path class="cls-1" d="m352.62,194.86v-4.87h-14.76v4.87h-4.72v29.03h4.83v-14.55h14.55v14.55h4.83v-29.03h-4.73Zm-.1,9.62h-14.55v-9.62h14.55v9.62Z"/><path d="m393.49,202.37v-6.83h-1.7v-1.7h-3.03v-3.17h-1.7v-1.7h-16.66v4.87h-4.86v26.21h1.7v1.7h3.16v3.16h1.7v1.7h16.53v-4.86h4.86v-6.8h-1.7v-1.7h-6.9v4.83h-10.82v-20.57h10.88v3.16h1.7v1.7h6.84Zm-7.55-2.72v-4.79h-14.55v24.24h14.48v-4.8h4.9v4.8h-4.9v4.79h-14.48v-4.79h-4.83v-24.24h4.83v-4.8h14.55v4.8h4.83v4.79h-4.83Z"/><rect class="cls-1" x="385.94" y="194.86" width="4.83" height="4.79"/><rect class="cls-1" x="366.56" y="194.86" width="4.83" height="24.24"/><rect class="cls-1" x="371.39" y="190.06" width="14.55" height="4.8"/><rect class="cls-1" x="385.87" y="214.3" width="4.9" height="4.8"/><rect class="cls-1" x="371.39" y="219.1" width="14.48" height="4.79"/><path d="m423.95,190.67v-1.7h-26.25v6.84h1.7v1.7h8.03v27.4h1.7v1.7h6.83v-29.1h9.69v-6.84h-1.7Zm-1.02,4.12h-9.65v29.1h-4.83v-29.1h-9.73v-4.8h24.21v4.8Z"/><polygon class="cls-1" points="422.93 189.99 422.93 194.79 413.28 194.79 413.28 223.89 408.45 223.89 408.45 194.79 398.72 194.79 398.72 189.99 422.93 189.99"/><circle class="cls-4" cx="484.49" cy="293.89" r="7.95"/><line class="cls-5" x1="486.91" y1="291.94" x2="482.08" y2="296.77"/><line class="cls-5" x1="482.06" y1="291.92" x2="486.93" y2="296.79"/><circle class="cls-4" cx="484.49" cy="51.7" r="7.95"/><line class="cls-5" x1="486.91" y1="49.75" x2="482.08" y2="54.58"/><line class="cls-5" x1="482.06" y1="49.73" x2="486.93" y2="54.6"/><circle class="cls-4" cx="33" cy="293.89" r="7.95"/><line class="cls-5" x1="35.41" y1="291.94" x2="30.59" y2="296.77"/><line class="cls-5" x1="30.56" y1="291.92" x2="35.43" y2="296.79"/><circle class="cls-4" cx="33" cy="51.7" r="7.95"/><line class="cls-5" x1="35.41" y1="49.75" x2="30.59" y2="54.58"/><line class="cls-5" x1="30.56" y1="49.73" x2="35.43" y2="54.6"/></g></svg>